<svg xmlns="http://www.w3.org/2000/svg" xmlns:xlink="http://www.w3.org/1999/xlink" contentStyleType="text/css" data-diagram-type="ACTIVITY" height="1222px" preserveAspectRatio="none" style="width:535px;height:1222px;background:#FFFFFF;" version="1.1" viewBox="0 0 535 1222" width="535px" zoomAndPan="magnify"><title>&#20225;&#19994;&#25991;&#20214;&#31649;&#29702;&#31995;&#32479; - &#22238;&#25910;&#31449;&#65288;&#29992;&#25143;&#20391;&#65289;UML &#27963;&#21160;&#22270;</title><defs/><g><g class="title" data-source-line="1"><text fill="#000000" font-family="sans-serif" font-size="14" font-weight="bold" lengthAdjust="spacing" textLength="214.2793" x="159.2334" y="32.9951">&#20225;&#19994;&#25991;&#20214;&#31649;&#29702;&#31995;&#32479; - &#22238;&#25910;&#31449;&#65288;&#29992;&#25143;&#20391;&#65289;UML &#27963;&#21160;&#22270;</text></g><ellipse cx="267.873" cy="57.2969" fill="#222222" rx="10" ry="10" style="stroke:#222222;stroke-width:1;"/><rect fill="#F1F1F1" height="33.9688" rx="12.5" ry="12.5" style="stroke:#181818;stroke-width:0.5;" width="70.4082" x="232.6689" y="87.2969"/><text fill="#000000" font-family="sans-serif" font-size="12" lengthAdjust="spacing" textLength="50.4082" x="242.6689" y="108.4355">&#29992;&#25143;&#25171;&#24320;&#22238;&#25910;&#31449;</text><rect fill="#F1F1F1" height="47.9375" rx="12.5" ry="12.5" style="stroke:#181818;stroke-width:0.5;" width="168.916" x="183.415" y="141.2656"/><text fill="#000000" font-family="sans-serif" font-size="12" lengthAdjust="spacing" textLength="28.8047" x="193.415" y="162.4043">&#21069;&#31471;&#35831;&#27714;</text><text fill="#000000" font-family="sans-serif" font-size="12" lengthAdjust="spacing" textLength="148.916" x="193.415" y="176.373">GET /api/files/recycle/bin</text><rect fill="#F1F1F1" height="47.9375" rx="12.5" ry="12.5" style="stroke:#181818;stroke-width:0.5;" width="513.7461" x="11" y="209.2031"/><text fill="#000000" font-family="sans-serif" font-size="12" lengthAdjust="spacing" textLength="95.3672" x="21" y="230.3418">&#21518;&#31471;&#35299;&#26512; userId &#24182;&#26597;&#35810;</text><text fill="#000000" font-family="sans-serif" font-size="12" lengthAdjust="spacing" textLength="493.7461" x="21" y="244.3105">(DB: findByUserIdAndDeletedTrueAndOwnerHiddenFalseOrderByDeleteTimeDesc)</text><rect fill="#F1F1F1" height="33.9688" rx="12.5" ry="12.5" style="stroke:#181818;stroke-width:0.5;" width="106.6953" x="214.5254" y="277.1406"/><text fill="#000000" font-family="sans-serif" font-size="12" lengthAdjust="spacing" textLength="86.6953" x="224.5254" y="298.2793">&#36820;&#22238; 200 [File...]</text><rect fill="#F1F1F1" height="33.9688" rx="12.5" ry="12.5" style="stroke:#181818;stroke-width:0.5;" width="84.8105" x="225.4678" y="331.1094"/><text fill="#000000" font-family="sans-serif" font-size="12" lengthAdjust="spacing" textLength="64.8105" x="235.4678" y="352.248">&#21069;&#31471;&#28210;&#26579;&#22238;&#25910;&#31449;&#21015;&#34920;</text><rect fill="#F1F1F1" height="47.9375" rx="12.5" ry="12.5" style="stroke:#181818;stroke-width:0.5;" width="193.8008" x="170.9727" y="433.4805"/><text fill="#000000" font-family="sans-serif" font-size="12" lengthAdjust="spacing" textLength="28.8047" x="180.9727" y="454.6191">&#21069;&#31471;&#25552;&#20132;</text><text fill="#000000" font-family="sans-serif" font-size="12" lengthAdjust="spacing" textLength="173.8008" x="180.9727" y="468.5879">PUT /api/files/{fileId}/restore</text><rect fill="#F1F1F1" height="33.9688" rx="12.5" ry="12.5" style="stroke:#181818;stroke-width:0.5;" width="316.9707" x="109.3877" y="501.418"/><text fill="#000000" font-family="sans-serif" font-size="12" lengthAdjust="spacing" textLength="296.9707" x="119.3877" y="522.5566">&#21518;&#31471;&#35299;&#26512; userId, &#24674;&#22797;&#25991;&#20214; (deleted=false, &#28165;&#31354; deleteTime)</text><rect fill="#F1F1F1" height="33.9688" rx="12.5" ry="12.5" style="stroke:#181818;stroke-width:0.5;" width="224.4922" x="155.627" y="555.3867"/><text fill="#000000" font-family="sans-serif" font-size="12" lengthAdjust="spacing" textLength="204.4922" x="165.627" y="576.5254">&#36820;&#22238; 200 { quotaUsed, quotaLimit }</text><polygon fill="#F1F1F1" points="239.4519,385.0781,296.2942,385.0781,308.2942,397.0781,296.2942,409.0781,239.4519,409.0781,227.4519,397.0781,239.4519,385.0781" style="stroke:#181818;stroke-width:0.5;"/><text fill="#000000" font-family="sans-serif" font-size="11" lengthAdjust="spacing" textLength="6.6011" x="271.873" y="419.2886">&#26159;</text><text fill="#000000" font-family="sans-serif" font-size="11" lengthAdjust="spacing" textLength="56.8423" x="239.4519" y="400.8862">&#29992;&#25143;&#28857;&#20987;&#8220;&#24674;&#22797;&#8221;?</text><polygon fill="#F1F1F1" points="267.873,609.3555,279.873,621.3555,267.873,633.3555,255.873,621.3555,267.873,609.3555" style="stroke:#181818;stroke-width:0.5;"/><rect fill="#F1F1F1" height="47.9375" rx="12.5" ry="12.5" style="stroke:#181818;stroke-width:0.5;" width="239.4512" x="148.1475" y="701.7578"/><text fill="#000000" font-family="sans-serif" font-size="12" lengthAdjust="spacing" textLength="28.8047" x="158.1475" y="722.8965">&#21069;&#31471;&#25552;&#20132;</text><text fill="#000000" font-family="sans-serif" font-size="12" lengthAdjust="spacing" textLength="219.4512" x="158.1475" y="736.8652">DELETE /api/files/recycle/bin/{fileId}</text><rect fill="#F1F1F1" height="33.9688" rx="12.5" ry="12.5" style="stroke:#181818;stroke-width:0.5;" width="293.7207" x="121.0127" y="769.6953"/><text fill="#000000" font-family="sans-serif" font-size="12" lengthAdjust="spacing" textLength="273.7207" x="131.0127" y="790.834">&#21518;&#31471;&#35299;&#26512; userId, &#26631;&#35760; ownerHidden=true (&#31995;&#32479;&#22238;&#25910;&#31449;&#20445;&#30041;)</text><rect fill="#F1F1F1" height="33.9688" rx="12.5" ry="12.5" style="stroke:#181818;stroke-width:0.5;" width="141.7637" x="196.9912" y="823.6641"/><text fill="#000000" font-family="sans-serif" font-size="12" lengthAdjust="spacing" textLength="121.7637" x="206.9912" y="844.8027">&#36820;&#22238; 200 { message }</text><polygon fill="#F1F1F1" points="232.8508,653.3555,302.8953,653.3555,314.8953,665.3555,302.8953,677.3555,232.8508,677.3555,220.8508,665.3555,232.8508,653.3555" style="stroke:#181818;stroke-width:0.5;"/><text fill="#000000" font-family="sans-serif" font-size="11" lengthAdjust="spacing" textLength="6.6011" x="271.873" y="687.5659">&#26159;</text><text fill="#000000" font-family="sans-serif" font-size="11" lengthAdjust="spacing" textLength="70.0444" x="232.8508" y="669.1636">&#29992;&#25143;&#28857;&#20987;&#8220;&#24443;&#24213;&#21024;&#38500;&#8221;?</text><polygon fill="#F1F1F1" points="267.873,877.6328,279.873,889.6328,267.873,901.6328,255.873,889.6328,267.873,877.6328" style="stroke:#181818;stroke-width:0.5;"/><rect fill="#F1F1F1" height="47.9375" rx="12.5" ry="12.5" style="stroke:#181818;stroke-width:0.5;" width="233.2461" x="151.25" y="970.0352"/><text fill="#000000" font-family="sans-serif" font-size="12" lengthAdjust="spacing" textLength="28.8047" x="161.25" y="991.1738">&#21069;&#31471;&#25552;&#20132;</text><text fill="#000000" font-family="sans-serif" font-size="12" lengthAdjust="spacing" textLength="213.2461" x="161.25" y="1005.1426">DELETE /api/files/recycle/bin/empty</text><rect fill="#F1F1F1" height="33.9688" rx="12.5" ry="12.5" style="stroke:#181818;stroke-width:0.5;" width="230.1348" x="152.8057" y="1037.9727"/><text fill="#000000" font-family="sans-serif" font-size="12" lengthAdjust="spacing" textLength="210.1348" x="162.8057" y="1059.1113">&#21518;&#31471;&#35299;&#26512; userId, &#25209;&#37327; ownerHidden=true</text><rect fill="#F1F1F1" height="33.9688" rx="12.5" ry="12.5" style="stroke:#181818;stroke-width:0.5;" width="141.7637" x="196.9912" y="1091.9414"/><text fill="#000000" font-family="sans-serif" font-size="12" lengthAdjust="spacing" textLength="121.7637" x="206.9912" y="1113.0801">&#36820;&#22238; 200 { message }</text><polygon fill="#F1F1F1" points="229.5503,921.6328,306.1958,921.6328,318.1958,933.6328,306.1958,945.6328,229.5503,945.6328,217.5503,933.6328,229.5503,921.6328" style="stroke:#181818;stroke-width:0.5;"/><text fill="#000000" font-family="sans-serif" font-size="11" lengthAdjust="spacing" textLength="6.6011" x="271.873" y="955.8433">&#26159;</text><text fill="#000000" font-family="sans-serif" font-size="11" lengthAdjust="spacing" textLength="76.6455" x="229.5503" y="937.4409">&#29992;&#25143;&#28857;&#20987;&#8220;&#28165;&#31354;&#22238;&#25910;&#31449;&#8221;?</text><polygon fill="#F1F1F1" points="267.873,1145.9102,279.873,1157.9102,267.873,1169.9102,255.873,1157.9102,267.873,1145.9102" style="stroke:#181818;stroke-width:0.5;"/><ellipse cx="267.873" cy="1200.9102" fill="none" rx="11" ry="11" style="stroke:#222222;stroke-width:1;"/><ellipse cx="267.873" cy="1200.9102" fill="#222222" rx="6" ry="6" style="stroke:#222222;stroke-width:1;"/><line style="stroke:#181818;stroke-width:1;" x1="267.873" x2="267.873" y1="67.2969" y2="87.2969"/><polygon fill="#181818" points="263.873,77.2969,267.873,87.2969,271.873,77.2969,267.873,81.2969" style="stroke:#181818;stroke-width:1;"/><line style="stroke:#181818;stroke-width:1;" x1="267.873" x2="267.873" y1="121.2656" y2="141.2656"/><polygon fill="#181818" points="263.873,131.2656,267.873,141.2656,271.873,131.2656,267.873,135.2656" style="stroke:#181818;stroke-width:1;"/><line style="stroke:#181818;stroke-width:1;" x1="267.873" x2="267.873" y1="189.2031" y2="209.2031"/><polygon fill="#181818" points="263.873,199.2031,267.873,209.2031,271.873,199.2031,267.873,203.2031" style="stroke:#181818;stroke-width:1;"/><line style="stroke:#181818;stroke-width:1;" x1="267.873" x2="267.873" y1="257.1406" y2="277.1406"/><polygon fill="#181818" points="263.873,267.1406,267.873,277.1406,271.873,267.1406,267.873,271.1406" style="stroke:#181818;stroke-width:1;"/><line style="stroke:#181818;stroke-width:1;" x1="267.873" x2="267.873" y1="311.1094" y2="331.1094"/><polygon fill="#181818" points="263.873,321.1094,267.873,331.1094,271.873,321.1094,267.873,325.1094" style="stroke:#181818;stroke-width:1;"/><line style="stroke:#181818;stroke-width:1;" x1="267.873" x2="267.873" y1="481.418" y2="501.418"/><polygon fill="#181818" points="263.873,491.418,267.873,501.418,271.873,491.418,267.873,495.418" style="stroke:#181818;stroke-width:1;"/><line style="stroke:#181818;stroke-width:1;" x1="267.873" x2="267.873" y1="535.3867" y2="555.3867"/><polygon fill="#181818" points="263.873,545.3867,267.873,555.3867,271.873,545.3867,267.873,549.3867" style="stroke:#181818;stroke-width:1;"/><line style="stroke:#181818;stroke-width:1;" x1="267.873" x2="267.873" y1="409.0781" y2="433.4805"/><polygon fill="#181818" points="263.873,423.4805,267.873,433.4805,271.873,423.4805,267.873,427.4805" style="stroke:#181818;stroke-width:1;"/><line style="stroke:#181818;stroke-width:1;" x1="308.2942" x2="436.3584" y1="397.0781" y2="397.0781"/><polygon fill="#181818" points="432.3584,501.418,436.3584,511.418,440.3584,501.418,436.3584,505.418" style="stroke:#181818;stroke-width:1;"/><line style="stroke:#181818;stroke-width:1;" x1="436.3584" x2="436.3584" y1="397.0781" y2="621.3555"/><line style="stroke:#181818;stroke-width:1;" x1="436.3584" x2="279.873" y1="621.3555" y2="621.3555"/><polygon fill="#181818" points="289.873,617.3555,279.873,621.3555,289.873,625.3555,285.873,621.3555" style="stroke:#181818;stroke-width:1;"/><line style="stroke:#181818;stroke-width:1;" x1="267.873" x2="267.873" y1="589.3555" y2="609.3555"/><polygon fill="#181818" points="263.873,599.3555,267.873,609.3555,271.873,599.3555,267.873,603.3555" style="stroke:#181818;stroke-width:1;"/><line style="stroke:#181818;stroke-width:1;" x1="267.873" x2="267.873" y1="365.0781" y2="385.0781"/><polygon fill="#181818" points="263.873,375.0781,267.873,385.0781,271.873,375.0781,267.873,379.0781" style="stroke:#181818;stroke-width:1;"/><line style="stroke:#181818;stroke-width:1;" x1="267.873" x2="267.873" y1="749.6953" y2="769.6953"/><polygon fill="#181818" points="263.873,759.6953,267.873,769.6953,271.873,759.6953,267.873,763.6953" style="stroke:#181818;stroke-width:1;"/><line style="stroke:#181818;stroke-width:1;" x1="267.873" x2="267.873" y1="803.6641" y2="823.6641"/><polygon fill="#181818" points="263.873,813.6641,267.873,823.6641,271.873,813.6641,267.873,817.6641" style="stroke:#181818;stroke-width:1;"/><line style="stroke:#181818;stroke-width:1;" x1="267.873" x2="267.873" y1="677.3555" y2="701.7578"/><polygon fill="#181818" points="263.873,691.7578,267.873,701.7578,271.873,691.7578,267.873,695.7578" style="stroke:#181818;stroke-width:1;"/><line style="stroke:#181818;stroke-width:1;" x1="314.8953" x2="424.7334" y1="665.3555" y2="665.3555"/><polygon fill="#181818" points="420.7334,769.6953,424.7334,779.6953,428.7334,769.6953,424.7334,773.6953" style="stroke:#181818;stroke-width:1;"/><line style="stroke:#181818;stroke-width:1;" x1="424.7334" x2="424.7334" y1="665.3555" y2="889.6328"/><line style="stroke:#181818;stroke-width:1;" x1="424.7334" x2="279.873" y1="889.6328" y2="889.6328"/><polygon fill="#181818" points="289.873,885.6328,279.873,889.6328,289.873,893.6328,285.873,889.6328" style="stroke:#181818;stroke-width:1;"/><line style="stroke:#181818;stroke-width:1;" x1="267.873" x2="267.873" y1="857.6328" y2="877.6328"/><polygon fill="#181818" points="263.873,867.6328,267.873,877.6328,271.873,867.6328,267.873,871.6328" style="stroke:#181818;stroke-width:1;"/><line style="stroke:#181818;stroke-width:1;" x1="267.873" x2="267.873" y1="633.3555" y2="653.3555"/><polygon fill="#181818" points="263.873,643.3555,267.873,653.3555,271.873,643.3555,267.873,647.3555" style="stroke:#181818;stroke-width:1;"/><line style="stroke:#181818;stroke-width:1;" x1="267.873" x2="267.873" y1="1017.9727" y2="1037.9727"/><polygon fill="#181818" points="263.873,1027.9727,267.873,1037.9727,271.873,1027.9727,267.873,1031.9727" style="stroke:#181818;stroke-width:1;"/><line style="stroke:#181818;stroke-width:1;" x1="267.873" x2="267.873" y1="1071.9414" y2="1091.9414"/><polygon fill="#181818" points="263.873,1081.9414,267.873,1091.9414,271.873,1081.9414,267.873,1085.9414" style="stroke:#181818;stroke-width:1;"/><line style="stroke:#181818;stroke-width:1;" x1="267.873" x2="267.873" y1="945.6328" y2="970.0352"/><polygon fill="#181818" points="263.873,960.0352,267.873,970.0352,271.873,960.0352,267.873,964.0352" style="stroke:#181818;stroke-width:1;"/><line style="stroke:#181818;stroke-width:1;" x1="318.1958" x2="394.4961" y1="933.6328" y2="933.6328"/><polygon fill="#181818" points="390.4961,1037.9727,394.4961,1047.9727,398.4961,1037.9727,394.4961,1041.9727" style="stroke:#181818;stroke-width:1;"/><line style="stroke:#181818;stroke-width:1;" x1="394.4961" x2="394.4961" y1="933.6328" y2="1157.9102"/><line style="stroke:#181818;stroke-width:1;" x1="394.4961" x2="279.873" y1="1157.9102" y2="1157.9102"/><polygon fill="#181818" points="289.873,1153.9102,279.873,1157.9102,289.873,1161.9102,285.873,1157.9102" style="stroke:#181818;stroke-width:1;"/><line style="stroke:#181818;stroke-width:1;" x1="267.873" x2="267.873" y1="1125.9102" y2="1145.9102"/><polygon fill="#181818" points="263.873,1135.9102,267.873,1145.9102,271.873,1135.9102,267.873,1139.9102" style="stroke:#181818;stroke-width:1;"/><line style="stroke:#181818;stroke-width:1;" x1="267.873" x2="267.873" y1="901.6328" y2="921.6328"/><polygon fill="#181818" points="263.873,911.6328,267.873,921.6328,271.873,911.6328,267.873,915.6328" style="stroke:#181818;stroke-width:1;"/><line style="stroke:#181818;stroke-width:1;" x1="267.873" x2="267.873" y1="1169.9102" y2="1189.9102"/><polygon fill="#181818" points="263.873,1179.9102,267.873,1189.9102,271.873,1179.9102,267.873,1183.9102" style="stroke:#181818;stroke-width:1;"/><!--SRC=[fP9DRn916CVl-ocU8oGAZKT8OoHGROAf1pY91sGUT99bmTqXXZHDQ1C5J6f9IbMiBMt55DEa-1OABBRVfTcPtPxw5HpOk6hQeecdcSdpzlyz_s6KgGZMQDdglnMlAfRPimztxVfp-wjfcosu3dnpMpHwza7pV5Ir6nrHFRAEzyz7jUJTE8Xl9d_HuPl7YcAmjCwKa9iXQkjyLFOgmqg8rrRjWwxJFHAVLrBQxLW2Wka23MQfYaPGnqmfesBm8TN6gVMNuzJzzsAx3aK3zNa2VD0JhGzETo-b-QAH46IfHYAbv2HuIoDHL94XIUX5bA-5fnhgToWXgCsbLGCNT89wfEGc9MWEesXa_7AISzAG6k76p0pSdvDA0e700q-hw7yHhNMFWLTVExkTiABGBFXSIdjbm2lcQVcTMDxZxTNJyjPDFx37g85FlEdw5O2VhTRgrh2Tqkub_y1U71_pP4do6oolOtXISP7-6hW3N7l0HrpQsUmOJWRxp-oFGo0Udd_Iw3UuHNXIpBEqN9ViDRd6QOuoM0ehg16QlHIAVpVvS8DNTywQxR-ZHMFnM29sXQaUwHJ2dOfp-0dolwoRPT9DgMho3pqRh9CjUwDv2M4E3IFz2ASpkQloclql5kOAh3I5gJOugwnTOFeNxV8_59GV]--></g></svg>