<svg xmlns="http://www.w3.org/2000/svg" xmlns:xlink="http://www.w3.org/1999/xlink" contentStyleType="text/css" data-diagram-type="ACTIVITY" height="1221px" preserveAspectRatio="none" style="width:556px;height:1221px;background:#FFFFFF;" version="1.1" viewBox="0 0 556 1221" width="556px" zoomAndPan="magnify"><title>&#31649;&#29702;&#21592; - &#31995;&#32479;&#35774;&#32622;&#19982;&#19978;&#20256;&#31574;&#30053; UML &#27963;&#21160;&#22270;</title><defs/><g><g class="title" data-source-line="1"><text fill="#000000" font-family="sans-serif" font-size="14" font-weight="bold" lengthAdjust="spacing" textLength="185.5479" x="183.9565" y="32.9951">&#31649;&#29702;&#21592; - &#31995;&#32479;&#35774;&#32622;&#19982;&#19978;&#20256;&#31574;&#30053; UML &#27963;&#21160;&#22270;</text></g><ellipse cx="271.2305" cy="57.2969" fill="#222222" rx="10" ry="10" style="stroke:#222222;stroke-width:1;"/><rect fill="none" height="540.3867" style="stroke:#000000;stroke-width:1.5;" width="534.4609" x="11" y="77.2969"/><path d="M63.0068,77.2969 L63.0068,86.5938 L53.0068,96.5938 L11,96.5938" fill="none" style="stroke:#000000;stroke-width:1.5;"/><text fill="#000000" font-family="sans-serif" font-size="14" lengthAdjust="spacing" textLength="42.0068" x="14" y="91.292">&#22238;&#25910;&#31449;&#35774;&#32622;</text><rect fill="#F1F1F1" height="47.9375" rx="12.5" ry="12.5" style="stroke:#181818;stroke-width:0.5;" width="211.2852" x="165.5879" y="113.5938"/><text fill="#000000" font-family="sans-serif" font-size="12" lengthAdjust="spacing" textLength="28.8047" x="175.5879" y="134.7324">&#21069;&#31471;&#35831;&#27714;</text><text fill="#000000" font-family="sans-serif" font-size="12" lengthAdjust="spacing" textLength="191.2852" x="175.5879" y="148.7012">GET /api/admin/settings/recycle</text><rect fill="#F1F1F1" height="33.9688" rx="12.5" ry="12.5" style="stroke:#181818;stroke-width:0.5;" width="308.6152" x="116.9229" y="181.5313"/><text fill="#000000" font-family="sans-serif" font-size="12" lengthAdjust="spacing" textLength="288.6152" x="126.9229" y="202.6699">&#36820;&#22238; 200 { manualPurgeEnabled, retentionDays }</text><rect fill="#F1F1F1" height="61.9063" rx="12.5" ry="12.5" style="stroke:#181818;stroke-width:0.5;" width="276.418" x="133.0215" y="283.9023"/><text fill="#000000" font-family="sans-serif" font-size="12" lengthAdjust="spacing" textLength="28.8047" x="143.0215" y="305.041">&#21069;&#31471;&#25552;&#20132;</text><text fill="#000000" font-family="sans-serif" font-size="12" lengthAdjust="spacing" textLength="190.4238" x="143.0215" y="319.0098">PUT /api/admin/settings/recycle</text><text fill="#000000" font-family="sans-serif" font-size="12" lengthAdjust="spacing" textLength="256.418" x="143.0215" y="332.9785">{ manualPurgeEnabled?, retentionDays? }</text><rect fill="#F1F1F1" height="33.9688" rx="12.5" ry="12.5" style="stroke:#181818;stroke-width:0.5;" width="108.5762" x="216.9424" y="365.8086"/><text fill="#000000" font-family="sans-serif" font-size="12" lengthAdjust="spacing" textLength="88.5762" x="226.9424" y="386.9473">&#37492;&#26435;&#24182;&#33719;&#21462; adminId</text><rect fill="#F1F1F1" height="33.9688" rx="12.5" ry="12.5" style="stroke:#181818;stroke-width:0.5;" width="496.4609" x="23" y="419.7773"/><text fill="#000000" font-family="sans-serif" font-size="12" lengthAdjust="spacing" textLength="476.4609" x="33" y="440.916">&#26356;&#26032; KEY_RECYCLE_MANUAL_PURGE_ENABLED / KEY_RECYCLE_RETENTION_DAYS</text><rect fill="#F1F1F1" height="33.9688" rx="12.5" ry="12.5" style="stroke:#181818;stroke-width:0.5;" width="84.8105" x="228.8252" y="473.7461"/><text fill="#000000" font-family="sans-serif" font-size="12" lengthAdjust="spacing" textLength="64.8105" x="238.8252" y="494.8848">&#24517;&#35201;&#26102;&#23457;&#35745;&#26085;&#24535;&#35760;&#24405;</text><rect fill="#F1F1F1" height="33.9688" rx="12.5" ry="12.5" style="stroke:#181818;stroke-width:0.5;" width="370.1738" x="86.1436" y="527.7148"/><text fill="#000000" font-family="sans-serif" font-size="12" lengthAdjust="spacing" textLength="350.1738" x="96.1436" y="548.8535">&#36820;&#22238; 200 { message, manualPurgeEnabled, retentionDays }</text><polygon fill="#F1F1F1" points="235.3059,235.5,307.155,235.5,319.155,247.5,307.155,259.5,235.3059,259.5,223.3059,247.5,235.3059,235.5" style="stroke:#181818;stroke-width:0.5;"/><text fill="#000000" font-family="sans-serif" font-size="11" lengthAdjust="spacing" textLength="6.6011" x="275.2305" y="269.7104">&#26159;</text><text fill="#000000" font-family="sans-serif" font-size="11" lengthAdjust="spacing" textLength="71.8491" x="235.3059" y="251.3081">&#31649;&#29702;&#21592;&#20462;&#25913;&#35774;&#32622;&#24182;&#20445;&#23384;?</text><polygon fill="#F1F1F1" points="271.2305,581.6836,283.2305,593.6836,271.2305,605.6836,259.2305,593.6836,271.2305,581.6836" style="stroke:#181818;stroke-width:0.5;"/><rect fill="none" height="540.3867" style="stroke:#000000;stroke-width:1.5;" width="348.9961" x="102.7324" y="627.6836"/><path d="M146.3379,627.6836 L146.3379,636.9805 L136.3379,646.9805 L102.7324,646.9805" fill="none" style="stroke:#000000;stroke-width:1.5;"/><text fill="#000000" font-family="sans-serif" font-size="14" lengthAdjust="spacing" textLength="33.6055" x="105.7324" y="641.6787">&#19978;&#20256;&#31574;&#30053;</text><rect fill="#F1F1F1" height="47.9375" rx="12.5" ry="12.5" style="stroke:#181818;stroke-width:0.5;" width="248.4805" x="146.9902" y="663.9805"/><text fill="#000000" font-family="sans-serif" font-size="12" lengthAdjust="spacing" textLength="28.8047" x="156.9902" y="685.1191">&#21069;&#31471;&#35831;&#27714;</text><text fill="#000000" font-family="sans-serif" font-size="12" lengthAdjust="spacing" textLength="228.4805" x="156.9902" y="699.0879">GET /api/admin/settings/upload-policy</text><rect fill="#F1F1F1" height="33.9688" rx="12.5" ry="12.5" style="stroke:#181818;stroke-width:0.5;" width="235.4375" x="153.5117" y="731.918"/><text fill="#000000" font-family="sans-serif" font-size="12" lengthAdjust="spacing" textLength="215.4375" x="163.5117" y="753.0566">&#36820;&#22238; 200 { allowAll, allowedSuffixes }</text><rect fill="#F1F1F1" height="61.9063" rx="12.5" ry="12.5" style="stroke:#181818;stroke-width:0.5;" width="247.6191" x="147.4209" y="834.2891"/><text fill="#000000" font-family="sans-serif" font-size="12" lengthAdjust="spacing" textLength="28.8047" x="157.4209" y="855.4277">&#21069;&#31471;&#25552;&#20132;</text><text fill="#000000" font-family="sans-serif" font-size="12" lengthAdjust="spacing" textLength="227.6191" x="157.4209" y="869.3965">PUT /api/admin/settings/upload-policy</text><text fill="#000000" font-family="sans-serif" font-size="12" lengthAdjust="spacing" textLength="170.502" x="157.4209" y="883.3652">{ allowAll, allowedSuffixes }</text><rect fill="#F1F1F1" height="33.9688" rx="12.5" ry="12.5" style="stroke:#181818;stroke-width:0.5;" width="108.5762" x="216.9424" y="916.1953"/><text fill="#000000" font-family="sans-serif" font-size="12" lengthAdjust="spacing" textLength="88.5762" x="226.9424" y="937.334">&#37492;&#26435;&#24182;&#33719;&#21462; adminId</text><rect fill="#F1F1F1" height="33.9688" rx="12.5" ry="12.5" style="stroke:#181818;stroke-width:0.5;" width="252.084" x="145.1885" y="970.1641"/><text fill="#000000" font-family="sans-serif" font-size="12" lengthAdjust="spacing" textLength="232.084" x="155.1885" y="991.3027">setUploadAllowAll / setAllowedSuffixes</text><rect fill="#F1F1F1" height="33.9688" rx="12.5" ry="12.5" style="stroke:#181818;stroke-width:0.5;" width="63.207" x="239.627" y="1024.1328"/><text fill="#000000" font-family="sans-serif" font-size="12" lengthAdjust="spacing" textLength="43.207" x="249.627" y="1045.2715">&#23457;&#35745;&#26085;&#24535;&#35760;&#24405;</text><rect fill="#F1F1F1" height="33.9688" rx="12.5" ry="12.5" style="stroke:#181818;stroke-width:0.5;" width="296.9961" x="122.7324" y="1078.1016"/><text fill="#000000" font-family="sans-serif" font-size="12" lengthAdjust="spacing" textLength="276.9961" x="132.7324" y="1099.2402">&#36820;&#22238; 200 { message, allowAll, allowedSuffixes }</text><polygon fill="#F1F1F1" points="241.907,785.8867,300.554,785.8867,312.554,797.8867,300.554,809.8867,241.907,809.8867,229.907,797.8867,241.907,785.8867" style="stroke:#181818;stroke-width:0.5;"/><text fill="#000000" font-family="sans-serif" font-size="11" lengthAdjust="spacing" textLength="6.6011" x="275.2305" y="820.0972">&#26159;</text><text fill="#000000" font-family="sans-serif" font-size="11" lengthAdjust="spacing" textLength="58.647" x="241.907" y="801.6948">&#31649;&#29702;&#21592;&#20462;&#25913;&#21518;&#20445;&#23384;?</text><polygon fill="#F1F1F1" points="271.2305,1132.0703,283.2305,1144.0703,271.2305,1156.0703,259.2305,1144.0703,271.2305,1132.0703" style="stroke:#181818;stroke-width:0.5;"/><ellipse cx="271.2305" cy="1199.0703" fill="none" rx="11" ry="11" style="stroke:#222222;stroke-width:1;"/><ellipse cx="271.2305" cy="1199.0703" fill="#222222" rx="6" ry="6" style="stroke:#222222;stroke-width:1;"/><line style="stroke:#181818;stroke-width:1;" x1="271.2305" x2="271.2305" y1="161.5313" y2="181.5313"/><polygon fill="#181818" points="267.2305,171.5313,271.2305,181.5313,275.2305,171.5313,271.2305,175.5313" style="stroke:#181818;stroke-width:1;"/><line style="stroke:#181818;stroke-width:1;" x1="271.2305" x2="271.2305" y1="345.8086" y2="365.8086"/><polygon fill="#181818" points="267.2305,355.8086,271.2305,365.8086,275.2305,355.8086,271.2305,359.8086" style="stroke:#181818;stroke-width:1;"/><line style="stroke:#181818;stroke-width:1;" x1="271.2305" x2="271.2305" y1="399.7773" y2="419.7773"/><polygon fill="#181818" points="267.2305,409.7773,271.2305,419.7773,275.2305,409.7773,271.2305,413.7773" style="stroke:#181818;stroke-width:1;"/><line style="stroke:#181818;stroke-width:1;" x1="271.2305" x2="271.2305" y1="453.7461" y2="473.7461"/><polygon fill="#181818" points="267.2305,463.7461,271.2305,473.7461,275.2305,463.7461,271.2305,467.7461" style="stroke:#181818;stroke-width:1;"/><line style="stroke:#181818;stroke-width:1;" x1="271.2305" x2="271.2305" y1="507.7148" y2="527.7148"/><polygon fill="#181818" points="267.2305,517.7148,271.2305,527.7148,275.2305,517.7148,271.2305,521.7148" style="stroke:#181818;stroke-width:1;"/><line style="stroke:#181818;stroke-width:1;" x1="271.2305" x2="271.2305" y1="259.5" y2="283.9023"/><polygon fill="#181818" points="267.2305,273.9023,271.2305,283.9023,275.2305,273.9023,271.2305,277.9023" style="stroke:#181818;stroke-width:1;"/><line style="stroke:#181818;stroke-width:1;" x1="319.155" x2="529.4609" y1="247.5" y2="247.5"/><polygon fill="#181818" points="525.4609,412.793,529.4609,422.793,533.4609,412.793,529.4609,416.793" style="stroke:#181818;stroke-width:1;"/><line style="stroke:#181818;stroke-width:1;" x1="529.4609" x2="529.4609" y1="247.5" y2="593.6836"/><line style="stroke:#181818;stroke-width:1;" x1="529.4609" x2="283.2305" y1="593.6836" y2="593.6836"/><polygon fill="#181818" points="293.2305,589.6836,283.2305,593.6836,293.2305,597.6836,289.2305,593.6836" style="stroke:#181818;stroke-width:1;"/><line style="stroke:#181818;stroke-width:1;" x1="271.2305" x2="271.2305" y1="561.6836" y2="581.6836"/><polygon fill="#181818" points="267.2305,571.6836,271.2305,581.6836,275.2305,571.6836,271.2305,575.6836" style="stroke:#181818;stroke-width:1;"/><line style="stroke:#181818;stroke-width:1;" x1="271.2305" x2="271.2305" y1="215.5" y2="235.5"/><polygon fill="#181818" points="267.2305,225.5,271.2305,235.5,275.2305,225.5,271.2305,229.5" style="stroke:#181818;stroke-width:1;"/><line style="stroke:#181818;stroke-width:1;" x1="271.2305" x2="271.2305" y1="67.2969" y2="113.5938"/><polygon fill="#181818" points="267.2305,103.5938,271.2305,113.5938,275.2305,103.5938,271.2305,107.5938" style="stroke:#181818;stroke-width:1;"/><line style="stroke:#181818;stroke-width:1;" x1="271.2305" x2="271.2305" y1="711.918" y2="731.918"/><polygon fill="#181818" points="267.2305,721.918,271.2305,731.918,275.2305,721.918,271.2305,725.918" style="stroke:#181818;stroke-width:1;"/><line style="stroke:#181818;stroke-width:1;" x1="271.2305" x2="271.2305" y1="896.1953" y2="916.1953"/><polygon fill="#181818" points="267.2305,906.1953,271.2305,916.1953,275.2305,906.1953,271.2305,910.1953" style="stroke:#181818;stroke-width:1;"/><line style="stroke:#181818;stroke-width:1;" x1="271.2305" x2="271.2305" y1="950.1641" y2="970.1641"/><polygon fill="#181818" points="267.2305,960.1641,271.2305,970.1641,275.2305,960.1641,271.2305,964.1641" style="stroke:#181818;stroke-width:1;"/><line style="stroke:#181818;stroke-width:1;" x1="271.2305" x2="271.2305" y1="1004.1328" y2="1024.1328"/><polygon fill="#181818" points="267.2305,1014.1328,271.2305,1024.1328,275.2305,1014.1328,271.2305,1018.1328" style="stroke:#181818;stroke-width:1;"/><line style="stroke:#181818;stroke-width:1;" x1="271.2305" x2="271.2305" y1="1058.1016" y2="1078.1016"/><polygon fill="#181818" points="267.2305,1068.1016,271.2305,1078.1016,275.2305,1068.1016,271.2305,1072.1016" style="stroke:#181818;stroke-width:1;"/><line style="stroke:#181818;stroke-width:1;" x1="271.2305" x2="271.2305" y1="809.8867" y2="834.2891"/><polygon fill="#181818" points="267.2305,824.2891,271.2305,834.2891,275.2305,824.2891,271.2305,828.2891" style="stroke:#181818;stroke-width:1;"/><line style="stroke:#181818;stroke-width:1;" x1="312.554" x2="429.7285" y1="797.8867" y2="797.8867"/><polygon fill="#181818" points="425.7285,963.1797,429.7285,973.1797,433.7285,963.1797,429.7285,967.1797" style="stroke:#181818;stroke-width:1;"/><line style="stroke:#181818;stroke-width:1;" x1="429.7285" x2="429.7285" y1="797.8867" y2="1144.0703"/><line style="stroke:#181818;stroke-width:1;" x1="429.7285" x2="283.2305" y1="1144.0703" y2="1144.0703"/><polygon fill="#181818" points="293.2305,1140.0703,283.2305,1144.0703,293.2305,1148.0703,289.2305,1144.0703" style="stroke:#181818;stroke-width:1;"/><line style="stroke:#181818;stroke-width:1;" x1="271.2305" x2="271.2305" y1="1112.0703" y2="1132.0703"/><polygon fill="#181818" points="267.2305,1122.0703,271.2305,1132.0703,275.2305,1122.0703,271.2305,1126.0703" style="stroke:#181818;stroke-width:1;"/><line style="stroke:#181818;stroke-width:1;" x1="271.2305" x2="271.2305" y1="765.8867" y2="785.8867"/><polygon fill="#181818" points="267.2305,775.8867,271.2305,785.8867,275.2305,775.8867,271.2305,779.8867" style="stroke:#181818;stroke-width:1;"/><line style="stroke:#181818;stroke-width:1;" x1="271.2305" x2="271.2305" y1="605.6836" y2="663.9805"/><polygon fill="#181818" points="267.2305,653.9805,271.2305,663.9805,275.2305,653.9805,271.2305,657.9805" style="stroke:#181818;stroke-width:1;"/><line style="stroke:#181818;stroke-width:1;" x1="271.2305" x2="271.2305" y1="1156.0703" y2="1188.0703"/><polygon fill="#181818" points="267.2305,1178.0703,271.2305,1188.0703,275.2305,1178.0703,271.2305,1182.0703" style="stroke:#181818;stroke-width:1;"/><!--SRC=[fP9FQnf168Vl-odUOm86Gu_jGRPn2A76Yd4FWh1CtT4kR6ONTwILa4DRMaYWne9HYwI9q9H2o9fICKbjibzcPtRxBRf64xhzPqClmp0px-zzPfvXEZC8-4xFRxpYRpgm0FxdaJ_Q3vnB_yBnpkhUsRRtzS0_RlcxXw2ifa0CHdpx8-zUIfBDS8L9LZZeJ3SfyEuxqHpwHsydrR0X0TpbMw_zetxGFnMVdXVeCif175jw76lhEetRX36TbkruXHHhHOFS6rS4RZDCWZkBYx01wvXMiP6fLie4KVp885eCAeGHEkwOn3KRDiT5UWdcRcxXkOvedayW-FdGS_VuSISn3-mneJ0dEltviE86JUmql2_l2pIZ_1MjG7y7a_Y99Z712SE_RGt4tekmVL0_vJijk4fTqQQxeZiGhHDuWF9g5Ytbbr98NPNJYfnICqfs6QaeBTzFeIJ48qUoA8VIkPM7QJKfvzUcKTnz6Nnu9jf3xlG2foVQXznj1yu9lzYTdeW-AB5jN2QnVtrPGZMz96rAFtYE_8bRIAvQXecr1Siqz6BjLzNOCCmdic749ZEYhLLB9Vqf-RDYtgZ_fzm8qbZn38YPOiDavIfJdWQ52iCrEHfshUvsncQmNPkocMb9tm40]--></g></svg>